<svg xmlns="http://www.w3.org/2000/svg" width="1031.65" height="372.5" viewBox="0 0 1031.65 372.5"><path d="M107.05,101.4A53.64,53.64,0,0,0,91.7,136.1c-8.15-9.4-18.45-16.5-28.95-23-3.35,9.8-7,19.55-12.35,28.45,12.75,2.9,26.45,3.75,38.2,9.9-12.3,4.6-25.25,6.9-38.15,9.1A146.07,146.07,0,0,1,62.65,189a121.74,121.74,0,0,0,29.2-22.8V238a51.75,51.75,0,0,0,5.5,23C105.75,278,123.8,289.65,142.8,290c33.2.2,66.45.05,99.65.1a52.77,52.77,0,0,0,37.3-14.6A52.15,52.15,0,0,0,296,238.15V138.4a52.42,52.42,0,0,0-50.95-52.3H144.15a51.13,51.13,0,0,0-37.1,15.3M701,88c7.8-2.85,17.25,0,22,6.85,5.95,8,4.35,20.8-4,26.5-9.15,6.7-23.9,3.6-28.65-7-5.2-9.75.3-22.95,10.7-26.35M131.35,124.8a44.46,44.46,0,0,1,10-1.45c34.55,0,69.1.05,103.65,0,8.9,0,18.05,2.75,24.7,8.9a34.14,34.14,0,0,1,11.4,26.15c-.1,10.65.1,21.35-.1,32a34.18,34.18,0,0,1-20.6,29.5c-15.2,6.05-32.7.15-45.25-9.25-5.1-4.85-10.6-10-17.85-11-8-1.6-15.7,2.7-21.15,8.2-10,9.4-23.65,15.35-37.5,14.6-13.3-.15-25.75-9.4-30.25-21.85-3.35-8.8-1.75-18.4-2.15-27.55.35-8.85-1.1-18,1.85-26.5a34,34,0,0,1,23.25-21.65m12,18.3c-3.8,2-2.75,8.2,1.5,8.8,10.8,1.15,21.65,2.45,32.45,3.2,5-.25,5.6-8.25.7-9.2-9-1.25-18.15-1.8-27.2-2.9-2.5-.1-5.1-.85-7.45.1m89.15.3c-7.9,1-15.9,1.3-23.75,2.6-4.5,1.7-3.15,9.35,1.75,9.05,10.8-.85,21.55-2.05,32.3-3.2,4.25-.7,4.8-7.65.7-9-3.6-.6-7.35.3-11,.55m-74.6,15.7a14.57,14.57,0,0,0-9.85,8.55c-3.45,7.95,2.15,17.85,10.65,19.15,8.3,1.8,16.9-5.4,16.65-13.9.3-8.8-9-16.1-17.45-13.8m63.55.45a14.35,14.35,0,0,0-9,9.9c-2.25,8.15,4.15,17.2,12.65,17.55,8.4.9,16.2-7,15.15-15.35-.45-9-10.55-15.35-18.85-12.1Zm151.1,26.7c0,102.85-83.4,186.25-186.25,186.25S0,289.1,0,186.25,83.4,0,186.25,0,372.5,83.4,372.5,186.25Z" fill="#ffd300"/><path d="M559.65,91.2c7.8-7.55,23.45-5.5,27.5,5.2,3.15,8.3,2,17.4,2.1,26.1,0,48.25,0,96.5,0,144.75-.8,5.3-.1,11.1-3.3,15.75-5.25,8.8-19,10.2-26.1,3-5.35-4.85-6.2-12.6-6-19.45-8.8,10.1-19.8,19.05-33.1,22.2-16.5,4.25-35,1.25-48.55-9.35-16.05-12.1-24.25-32-26.55-51.45-2.1-20.7-.15-42.8,11.05-60.85,10.05,7.85,19.75,16.05,29.8,23.85a73.52,73.52,0,0,0-2.15,42.55c2.5,9.45,7.8,18.8,16.5,23.8a32.33,32.33,0,0,0,34.55-1.15c5.7-3.75,9.4-9.65,12.3-15.7,13.8,11.1,27.5,22.4,41.45,33.25-12.4-13.7-26.35-26-39.55-39a78.87,78.87,0,0,0,.5-35.35c-2.75-11.55-9.85-22.9-21.15-27.7a31.16,31.16,0,0,0-36.05,8.55c-8.55-8.4-17.3-16.6-25.8-25,14.35-12.6,34.75-15.95,53.1-12.45,13.35,2.2,24.6,10.75,33.7,20.35-.1-17.55,0-35,0-52.6-.05-6.8.95-14.25,5.8-19.3m72.7-3.65c6.55-1.75,14.3-.7,19.2,4.35,4.4,4.5,5.5,11.1,5.6,17.15.05,52.75,0,105.45.05,158.2-.1,5.9-.75,12.35-4.75,17-6.4,7.95-20,8.6-26.9,1.05-4.3-4.4-5.65-10.8-5.6-16.75q0-80.33,0-160.7c-.35-8.35,3.7-17.85,12.35-20.3M939.85,144c22.3-6,48-4.1,66.95,10.1,13.85,10,22.4,26.15,24.4,43,.1-.5.35-1.55.45-2.05V207c-1.2,5.1-2.7,11.05-7.7,13.7-8.6,4.6-18.7,4.55-28.2,4.5-22.15,0-44.25-.15-66.4.1.25,12.6,4.8,25.85,15.15,33.75,9.2,7.1,21.85,8.15,32.85,5.15,12-3.65,20.95-12.95,29.95-21.2,4-3.9,10.3-3.95,15.25-2.15,5.65,2.1,8,8.95,6.35,14.45-3.05,11.35-12.3,19.9-22.15,25.55-20.6,11.35-45.8,12.15-68.1,5.95-21-5.85-38-23.45-43.7-44.45-6-21.85-4.85-46.25,5.45-66.6,7.7-15.65,22.6-27.2,39.45-31.7m.5,31.95c-7.15,7.4-10,17.9-11,27.9h65.9c-.75-8.5-2.45-17.3-7.45-24.4-10.25-15.25-35.1-16.95-47.5-3.5M701.3,142.1c6.85-2.1,15.1-.55,20,5,3.7,4.1,5,9.8,5,15.2v96.95c-.1,8.1,1,17.15-4.1,24.1-5.85,8.45-19.4,9.85-26.85,2.7-4.8-4.35-6.35-11.1-6.25-17.4,0-34.1,0-68.2,0-102.3-.85-9.45,2.1-21.25,12.3-24.25m46.8,8.9c4.65-9.8,19-13.1,27.35-6.25,4.8,5.65,6.7,13.05,9.3,19.8q13.05,36.6,26.15,73.25a44.35,44.35,0,0,0,3.35,8.3c10.6-29.15,21.45-58.2,32.1-87.3,2.2-5.3,4.2-11.1,8.6-15,7.5-5.1,18.9-2.85,23.9,4.8,4.2,5.65,2.5,13.2.1,19.25q-18.6,46-37.2,92c-3.65,8.35-6,17.6-12.2,24.5-5.4,6-14.15,7.2-21.65,5.55-7.2-1.75-12.5-7.9-15.2-14.6C783.25,253.9,774.9,232,766,210.3c-5.55-13.85-11.4-27.6-16.7-41.6-2.1-5.55-4.3-12.15-1.15-17.7"/><path d="M244.1,85.75h-100a52.54,52.54,0,0,0-52.35,51.1c-7.7-9.25-18.35-16.55-28.65-23.2a.63.63,0,0,0-.3-.1,1.07,1.07,0,0,0-.4,0,.66.66,0,0,0-.45.5,136.84,136.84,0,0,1-11.4,26.75.68.68,0,0,0,0,.7.73.73,0,0,0,.6.4,152.72,152.72,0,0,1,38.5,9.2,155.11,155.11,0,0,1-38.5,9.2.66.66,0,0,0-.6.4.85.85,0,0,0,0,.7A139.85,139.85,0,0,1,61.9,188.2a.75.75,0,0,0,.45.5,1.07,1.07,0,0,0,.4.05.63.63,0,0,0,.3-.1c10.25-6.6,20.9-13.9,28.6-23.15v72.8a52.55,52.55,0,0,0,52.4,52.4h100a52.55,52.55,0,0,0,52.4-52.4V138.1a52.57,52.57,0,0,0-52.4-52.35"/><path d="M281.15,190.5a33.87,33.87,0,0,1-33.75,33.75h-108a33.87,33.87,0,0,1-33.75-33.75V158.8a33.87,33.87,0,0,1,33.75-33.75h108a33.87,33.87,0,0,1,33.75,33.75Z" fill="#ffd300"/><path d="M175.3,174.8a13.95,13.95,0,1,1-14-14h0a14,14,0,0,1,14,14" stroke="#000" stroke-miterlimit="10"/><path d="M240.7,174.8a13.95,13.95,0,1,1-13.95-14h0a14,14,0,0,1,13.95,14" stroke="#000" stroke-miterlimit="10"/><path d="M241.8,144.5a4.53,4.53,0,1,1,.95,9h0l-31,3.15a4.52,4.52,0,1,1-.9-9Z" stroke="#000" stroke-miterlimit="10"/><path d="M177.4,147.65a4.45,4.45,0,0,1,4,4.84v.06a4.49,4.49,0,0,1-4.86,4.1h0l-31.05-3.15a4.53,4.53,0,1,1,1-9h0Z" stroke="#000" stroke-miterlimit="10"/><path d="M139.15,224.8s20.3,1.95,38.45-15.55,34.35,0,34.35,0,13.35,15.4,40.3,15.75Z"/></svg>